<?xml version="1.0" encoding="UTF-8"?>
<svg version="1.1" xmlns="http://www.w3.org/2000/svg" width="512" height="512">
<path d="M0 0 C168.96 0 337.92 0 512 0 C512 168.96 512 337.92 512 512 C343.04 512 174.08 512 0 512 C0 343.04 0 174.08 0 0 Z " fill="#15A13D" transform="translate(0,0)"/>
<path d="M0 0 C168.96 0 337.92 0 512 0 C512 168.96 512 337.92 512 512 C343.04 512 174.08 512 0 512 C0 343.04 0 174.08 0 0 Z M68 83 C55.99354174 98.09748262 49.08183852 115.29287815 45 134 C44.74347688 135.00670321 44.74347688 135.00670321 44.48177147 136.03374386 C43.80556289 140.19714495 43.84843472 144.29052972 43.84609985 148.50209045 C43.8417176 149.46413672 43.83733535 150.42618299 43.8328203 151.41738218 C43.81945594 154.64422359 43.81325855 157.8710377 43.80712891 161.09790039 C43.79922564 163.41098656 43.79095654 165.7240715 43.78234863 168.03715515 C43.75613911 175.64064356 43.74081498 183.24413743 43.7265625 190.84765625 C43.72120105 193.470082 43.71582353 196.09250771 43.71043015 198.7149334 C43.68879671 209.63276843 43.66991377 220.55060217 43.65880775 231.46845341 C43.65587849 234.3000139 43.65291678 237.13157436 43.64990234 239.96313477 C43.64915629 240.66682737 43.64841024 241.37051996 43.64764158 242.09553658 C43.63502214 253.462871 43.60184429 264.83004778 43.56010051 276.19730873 C43.51749797 287.89545294 43.49409126 299.59351694 43.48888719 311.29173845 C43.48524878 317.84847132 43.47338979 324.40493733 43.44078445 330.96159554 C43.41048721 337.14310914 43.40446877 343.32419751 43.41616821 349.50576973 C43.41638719 351.75980727 43.40823005 354.01386578 43.39051437 356.26783371 C43.16084345 387.20397892 52.20639534 414.55754896 74 437 C74.68449219 437.75796875 75.36898437 438.5159375 76.07421875 439.296875 C93.87962985 458.38585547 121.59364335 468.21917798 147.24408913 469.28196716 C153.10361364 469.43654304 158.96235585 469.42915761 164.82348633 469.41992188 C167.05805378 469.42727971 169.29261746 469.43587085 171.5271759 469.44558716 C177.54389129 469.46762977 183.56046904 469.47074261 189.57721925 469.46883965 C194.62385679 469.46871916 199.67046599 469.47731487 204.71709555 469.48561716 C217.31401628 469.50588081 229.91085235 469.50702448 242.50777712 469.49981004 C253.39510635 469.4942381 264.28220004 469.51506004 275.16947428 469.54817051 C286.40587427 469.58207195 297.64216525 469.59658336 308.87862796 469.59245348 C315.16410506 469.59039821 321.44934728 469.59567507 327.73478127 469.62034607 C333.65057776 469.64280366 339.56588772 469.64057888 345.48168755 469.62041855 C347.63532524 469.61704206 349.78899696 469.6219497 351.94258881 469.63640213 C384.22630799 469.83786986 413.58444779 459.74319082 437.1875 437.25 C457.92171907 415.6756586 468.13621482 387.04101752 468.15390015 357.36566162 C468.1582824 356.44975699 468.16266465 355.53385235 468.1671797 354.59019303 C468.18043533 351.54938422 468.1867165 348.50860429 468.19287109 345.46777344 C468.20078266 343.27541986 468.20905225 341.08306754 468.21765137 338.89071655 C468.24375439 331.71361514 468.25916955 324.53650826 468.2734375 317.359375 C468.27880242 314.87783048 468.28417994 312.39628598 468.28956985 309.91474152 C468.31118338 299.58260985 468.32991528 289.25047967 468.34119225 278.91833115 C468.34412109 276.24438218 468.34708288 273.57043325 468.35009766 270.89648438 C468.35121673 269.89980473 468.35121673 269.89980473 468.35235842 268.88299015 C468.36419995 258.81124365 468.39303197 248.739644 468.43212891 238.66796875 C468.47753107 226.93353213 468.50516902 215.19921708 468.51111281 203.4646914 C468.51474507 197.26790257 468.52653827 191.07139667 468.55921555 184.87468719 C468.58957706 179.03371605 468.59550906 173.19319491 468.58383179 167.35216141 C468.58361337 165.22635076 468.59172238 163.10051748 468.60948563 160.97478104 C468.87413441 127.43723923 458.46298542 98.28587495 435.1875 73.875 C423.86339139 62.92469692 410.26658686 55.15169656 395.4375 50.125 C394.59977051 49.83874756 393.76204102 49.55249512 392.89892578 49.25756836 C378.51302667 44.63501801 364.27615306 44.70159582 349.3293457 44.70947266 C347.05124188 44.70347946 344.77314007 44.6966721 342.49504089 44.68911743 C336.33776273 44.67153104 330.18054023 44.66676517 324.02323937 44.66548586 C320.16778699 44.66405954 316.31234855 44.65978087 312.45689964 44.65449142 C299.67589442 44.63696693 286.89493379 44.62764815 274.11391828 44.62915237 C273.08360173 44.62927224 273.08360173 44.62927224 272.0324707 44.62939453 C271.00087458 44.62951717 271.00087458 44.62951717 269.94843813 44.62964229 C258.81307496 44.6304545 247.67784726 44.61132582 236.54252324 44.5831178 C225.067864 44.55428296 213.59328814 44.54094826 202.11859006 44.54230535 C195.69287771 44.54281302 189.26731887 44.5372377 182.84163857 44.51594925 C176.79301737 44.49645502 170.74469437 44.49651847 164.69606209 44.51098251 C162.48956614 44.51305787 160.28305096 44.50844674 158.07658768 44.4962616 C122.79200665 44.31418668 91.5278018 55.76143751 68 83 Z " fill="#FEFEFE" transform="translate(0,0)"/>
<path d="M0 0 C0.6704837 0.00176239 1.34096741 0.00352478 2.0317688 0.00534058 C33.24717593 0.187054 59.50918764 12.7826926 82 34.1875 C103.51343616 56.31366061 114.5157612 85.70628107 114.35913086 116.35522461 C113.62618955 147.04925853 100.56542412 174.83736011 78.9375 196.5 C54.90896342 218.66978903 24.90178757 228.89583511 -7.59912109 227.64794922 C-31.44060751 226.2160423 -53.74135496 216.55674212 -72.0625 201.5 C-72.97515625 200.76394531 -73.8878125 200.02789062 -74.828125 199.26953125 C-88.81170014 187.34353931 -99.35397894 171.22468717 -105.8125 154.125 C-106.09456299 153.3827417 -106.37662598 152.6404834 -106.66723633 151.87573242 C-111.20500521 139.24671626 -112.61655611 126.98247004 -112.5 113.6875 C-112.49662628 112.93920929 -112.49325256 112.19091858 -112.48977661 111.41995239 C-112.41721025 100.30898816 -111.86918082 90.044169 -108.0625 79.5 C-107.81580566 78.80213379 -107.56911133 78.10426758 -107.31494141 77.38525391 C-102.40158232 63.73703423 -95.42585082 51.62398088 -86.0625 40.5 C-85.39734375 39.70078125 -84.7321875 38.9015625 -84.046875 38.078125 C-71.57200441 23.62881446 -56.2091165 13.22609451 -38.375 6.5625 C-37.6523999 6.29219971 -36.9297998 6.02189941 -36.18530273 5.7434082 C-24.30414834 1.57530014 -12.55978063 -0.06251009 0 0 Z " fill="#0E9D32" transform="translate(256.0625,143.5)"/>
<path d="M0 0 C0.6704837 0.00176239 1.34096741 0.00352478 2.0317688 0.00534058 C33.24717593 0.187054 59.50918764 12.7826926 82 34.1875 C103.51343616 56.31366061 114.5157612 85.70628107 114.35913086 116.35522461 C113.62618955 147.04925853 100.56542412 174.83736011 78.9375 196.5 C54.90896342 218.66978903 24.90178757 228.89583511 -7.59912109 227.64794922 C-31.44060751 226.2160423 -53.74135496 216.55674212 -72.0625 201.5 C-72.97515625 200.76394531 -73.8878125 200.02789062 -74.828125 199.26953125 C-88.81170014 187.34353931 -99.35397894 171.22468717 -105.8125 154.125 C-106.09456299 153.3827417 -106.37662598 152.6404834 -106.66723633 151.87573242 C-111.20500521 139.24671626 -112.61655611 126.98247004 -112.5 113.6875 C-112.49662628 112.93920929 -112.49325256 112.19091858 -112.48977661 111.41995239 C-112.41721025 100.30898816 -111.86918082 90.044169 -108.0625 79.5 C-107.81580566 78.80213379 -107.56911133 78.10426758 -107.31494141 77.38525391 C-102.40158232 63.73703423 -95.42585082 51.62398088 -86.0625 40.5 C-85.39734375 39.70078125 -84.7321875 38.9015625 -84.046875 38.078125 C-71.57200441 23.62881446 -56.2091165 13.22609451 -38.375 6.5625 C-37.6523999 6.29219971 -36.9297998 6.02189941 -36.18530273 5.7434082 C-24.30414834 1.57530014 -12.55978063 -0.06251009 0 0 Z M-68.0625 51.5 C-78.16505674 63.16311429 -85.37147647 76.52221505 -89.0625 91.5 C-89.39894531 92.72783203 -89.39894531 92.72783203 -89.7421875 93.98046875 C-94.87387675 116.08891079 -90.5960678 141.73852117 -78.88476562 161.09326172 C-74.59624901 167.82682331 -69.61432244 173.77242155 -64.0625 179.5 C-63.25619141 180.41652344 -63.25619141 180.41652344 -62.43359375 181.3515625 C-50.07007272 194.92354799 -28.46364164 204.59170284 -10.33032227 205.66113281 C19.71589403 206.08862468 44.76163826 199.96311867 66.9375 178.5 C86.04644188 158.47970859 92.69494435 134.02626195 92.23828125 106.95703125 C91.47754514 85.40910259 82.07361651 66.48184601 67.9375 50.5 C67.35613281 49.819375 66.77476562 49.13875 66.17578125 48.4375 C51.06925284 31.99916178 27.57549824 22.2024043 5.51171875 21.26171875 C-23.28065277 20.60466811 -47.89699102 30.62638917 -68.0625 51.5 Z " fill="#FAFCFB" transform="translate(256.0625,143.5)"/>
<path d="M0 0 C3 1.9375 3 1.9375 5 5 C5.71378213 12.77466017 3.74959164 18.99597381 1.23828125 26.3046875 C0.65677559 28.04433273 0.65677559 28.04433273 0.06352234 29.81912231 C-0.75653435 32.26356137 -1.58309699 34.70582634 -2.41577148 37.14599609 C-3.67951384 40.85158271 -4.92248183 44.56362932 -6.16210938 48.27734375 C-6.96492832 50.66186859 -7.76892675 53.04599671 -8.57421875 55.4296875 C-8.94214035 56.52586395 -9.31006195 57.62204041 -9.68913269 58.75143433 C-17.86622443 82.62973628 -17.86622443 82.62973628 -26.61181641 86.95751953 C-30.93551184 89.0492662 -35.35969297 90.68430063 -39.8984375 92.2421875 C-41.14918564 92.6784697 -41.14918564 92.6784697 -42.42520142 93.12356567 C-45.07341173 94.04575747 -47.72417019 94.9603692 -50.375 95.875 C-52.11344423 96.48000065 -53.85172674 97.08546619 -55.58984375 97.69140625 C-59.87857535 99.18437978 -64.17367484 100.65806792 -68.47058105 102.12731934 C-70.99268359 102.99747575 -73.50682315 103.88808059 -76.02050781 104.78222656 C-77.60990651 105.33693115 -79.19941966 105.89130795 -80.7890625 106.4453125 C-81.85681412 106.83334549 -81.85681412 106.83334549 -82.94613647 107.22921753 C-87.81616456 108.90464454 -91.84331776 109.38855001 -97 109 C-100 107.125 -100 107.125 -102 104 C-103.1805536 96.31972812 -100.94805024 89.46696404 -98.45703125 82.2890625 C-98.09155685 81.19967377 -97.72608246 80.11028503 -97.34953308 78.98788452 C-96.57719469 76.69462682 -95.79771289 74.40376378 -95.01147461 72.11523438 C-93.82000766 68.64685491 -92.64928475 65.17203739 -91.48242188 61.6953125 C-90.72516246 59.45532173 -89.96673639 57.21572497 -89.20703125 54.9765625 C-88.86098343 53.95430573 -88.51493561 52.93204895 -88.15840149 51.8788147 C-79.60036215 27.01148492 -79.60036215 27.01148492 -71.68026733 22.75260925 C-64.9496738 19.74335231 -58.15775597 17.19015593 -51.1640625 14.86328125 C-50.08168304 14.49776657 -48.99930359 14.13225189 -47.88412476 13.75566101 C-44.4662138 12.6025176 -41.04575375 11.45717957 -37.625 10.3125 C-34.18335859 9.15557493 -30.74227243 7.99702297 -27.30160522 6.83720398 C-25.17095697 6.11953742 -23.03965651 5.40380346 -20.90762329 4.69026184 C-19.94246796 4.36619858 -18.97731262 4.04213531 -17.98291016 3.70825195 C-17.13894684 3.42577103 -16.29498352 3.1432901 -15.42544556 2.85224915 C-13.7075802 2.24862839 -12.00577 1.59839334 -10.31747437 0.91642761 C-6.80593358 -0.47218448 -3.70873294 -0.70286471 0 0 Z " fill="#FAFCFB" transform="translate(305,202)"/>
<path d="M0 0 C-1.64630065 5.03721114 -3.31628333 10.06508839 -5.0234375 15.08203125 C-6.30210958 18.85071646 -7.49061626 22.62798291 -8.6015625 26.44921875 C-9.12937165 28.13307499 -9.6579817 29.81668045 -10.1875 31.5 C-10.39318604 32.28157471 -10.59887207 33.06314941 -10.81079102 33.8684082 C-12.01430924 37.52631705 -13.08273065 39.44735832 -16.43579102 41.4675293 C-19.58414529 42.81318217 -22.74851261 43.92795756 -26 45 C-28.25148293 45.81851313 -30.50278376 46.63752732 -32.75390625 47.45703125 C-35.02207042 48.24612804 -37.2916131 49.03127331 -39.5625 49.8125 C-41.30370117 50.42254883 -41.30370117 50.42254883 -43.08007812 51.04492188 C-44.18931641 51.42841797 -45.29855469 51.81191406 -46.44140625 52.20703125 C-47.43857666 52.5522583 -48.43574707 52.89748535 -49.46313477 53.25317383 C-52 54 -52 54 -55 54 C-52.88990259 45.92334795 -50.54916678 37.93009874 -47.94067383 29.99975586 C-47.5190485 28.69948497 -47.10934374 27.39529294 -46.71118164 26.08764648 C-42.95398948 13.78234519 -42.95398948 13.78234519 -38.65625 11.484375 C-37.11809671 10.94784363 -35.56258433 10.46055583 -34 10 C-32.18601194 9.31404026 -30.37225518 8.62742724 -28.56169128 7.93247986 C-25.82702886 6.89683491 -23.07317311 5.91929311 -20.31665039 4.94360352 C-18.17140947 4.18178593 -16.03206949 3.40475018 -13.89257812 2.62695312 C-12.52637306 2.13969482 -11.15984764 1.65333359 -9.79296875 1.16796875 C-8.5608667 0.72735107 -7.32876465 0.2867334 -6.05932617 -0.16723633 C-3 -1 -3 -1 0 0 Z " fill="#0B992D" transform="translate(284,230)"/>
</svg>
